<svg id="about" xmlns="http://www.w3.org/2000/svg" viewBox="0 0 16.8 16.8"><path d="M15,6.6a8.4,8.4,0,1,0,8.4,8.4A8.4,8.4,0,0,0,15,6.6Zm0,15.74A7.34,7.34,0,1,1,22.33,15,7.33,7.33,0,0,1,15,22.34Z" transform="translate(-6.59 -6.6)"/><circle cx="8.28" cy="4.15" r="0.98"/><path d="M14.16,14.78v4.73a.94.94,0,0,0,1,.73c.84,0,1.71-1,1.91-1.22s0-.51-.39-.34-.85.07-.86-.44,0-4.8,0-4.8a.91.91,0,0,0-1-.82c-1-.06-2,1.28-2,1.28s-.09.46.43.33S14.16,14.06,14.16,14.78Z" transform="translate(-6.59 -6.6)"/></svg>