<svg id="at" xmlns="http://www.w3.org/2000/svg" viewBox="0 0 16.84 16.65"><path d="M23.34,14.6A8.69,8.69,0,0,0,15,6.68c-3.5-.08-9.24,2.76-8.35,9.55a7.86,7.86,0,0,0,7.24,7.1H19V21.4s-1.31,0-4.18.09-7-2.4-6.7-6.37a6.79,6.79,0,0,1,13.47-1c.54,3.42-.38,3.61-1.42,3.61s-1-.69-1.2-3A4,4,0,0,0,14.88,11a3.93,3.93,0,0,0-3.94,5.3,3.79,3.79,0,0,0,5.71,2.39,1.68,1.68,0,0,1,2.5.33C19.65,19.44,24.08,20,23.34,14.6ZM15,17.6A2.6,2.6,0,1,1,17.6,15,2.59,2.59,0,0,1,15,17.6Z" transform="translate(-6.58 -6.67)"/></svg>