<svg id="b-about2" xmlns="http://www.w3.org/2000/svg" viewBox="0 0 21.01 16.63"><path d="M23.38,6.68H6.62A2.13,2.13,0,0,0,4.5,8.81V21.19a2.13,2.13,0,0,0,2.12,2.13H23.38a2.13,2.13,0,0,0,2.12-2.13V8.81A2.13,2.13,0,0,0,23.38,6.68ZM12.09,9.89a2.54,2.54,0,1,1-2.53,2.53A2.54,2.54,0,0,1,12.09,9.89Zm3.27,10.22H9a.66.66,0,0,1-.65-.7c.11-2,.69-2.75,1-3a.64.64,0,0,1,.38-.12H14.5a.66.66,0,0,1,.36.11c.34.24,1,1,1.1,3.06A.61.61,0,0,1,15.36,20.11Zm6.07-4.18H17.6a.94.94,0,0,1,0-1.87h3.83a.94.94,0,1,1,0,1.87Zm0-2.9H17.6a.94.94,0,0,1,0-1.87h3.83a.94.94,0,1,1,0,1.87Z" transform="translate(-4.5 -6.68)"/></svg>