<svg id="b-certificates" xmlns="http://www.w3.org/2000/svg" viewBox="0 0 16.91 16.74"><path d="M22.75,16.06c-.87-.42-1.47-.83-.08-1.88s.79-1.81-.75-2S21,11.24,21.58,10s-.68-1.58-1.8-1.17-1.21.64-1.47-1-1.54-1.46-2.26-.41S15,8.23,15,8.23s-.34.27-1.05-.79-2-1.24-2.26.41-.34,1.44-1.47,1-2.4,0-1.8,1.17,1.2,2-.34,2.14-2.14.94-.75,2,.79,1.46-.08,1.88a1.06,1.06,0,0,0,.3,2c1.24.15,2,.75,1.4,1.31s-.46,2.18.71,2,2-1,2.18.3,1.17,2.14,1.73,1.39a6.86,6.86,0,0,1,.81-.87.9.9,0,0,1,1.24,0,6.86,6.86,0,0,1,.81.87C17,23.84,18,23,18.16,21.7s1-.49,2.18-.3,1.32-1.43.71-2,.16-1.16,1.4-1.31A1.06,1.06,0,0,0,22.75,16.06Z" transform="translate(-6.55 -6.63)"/></svg>