<svg id="b-light" xmlns="http://www.w3.org/2000/svg" viewBox="0 0 16.8 16.8"><circle cx="15.02" cy="14.97" r="4.7" transform="translate(-12.79 8.4) rotate(-45)"/><path d="M15,9.31a.77.77,0,0,0,.77-.77V7.36a.77.77,0,0,0-1.53,0V8.54A.77.77,0,0,0,15,9.31Z" transform="translate(-6.6 -6.6)"/><path d="M15,20.69a.77.77,0,0,0-.76.77v1.18a.77.77,0,0,0,1.53,0V21.46A.77.77,0,0,0,15,20.69Z" transform="translate(-6.6 -6.6)"/><path d="M9.31,15a.81.81,0,0,0-.81-.81H7.41a.81.81,0,1,0,0,1.61H8.5A.81.81,0,0,0,9.31,15Z" transform="translate(-6.6 -6.6)"/><path d="M22.59,14.19H21.5a.81.81,0,1,0,0,1.61h1.09a.81.81,0,1,0,0-1.61Z" transform="translate(-6.6 -6.6)"/><path d="M20.19,11l.77-.77a.81.81,0,0,0-1.14-1.14l-.77.77a.8.8,0,0,0,0,1.14A.81.81,0,0,0,20.19,11Z" transform="translate(-6.6 -6.6)"/><path d="M20.19,19a.81.81,0,1,0-1.14,1.14l.77.77A.81.81,0,0,0,21,19.78Z" transform="translate(-6.6 -6.6)"/><path d="M9.86,11A.81.81,0,0,0,11,11h0a.81.81,0,0,0,0-1.14l-.77-.77a.8.8,0,0,0-1.14,0h0a.8.8,0,0,0,0,1.14Z" transform="translate(-6.6 -6.6)"/><path d="M11,19a.8.8,0,0,0-1.14,0l-.77.77a.8.8,0,0,0,0,1.14h0a.8.8,0,0,0,1.14,0l.77-.77A.81.81,0,0,0,11,19Z" transform="translate(-6.6 -6.6)"/></svg>