<svg id="b-projects" xmlns="http://www.w3.org/2000/svg" viewBox="0 0 20.94 16.74"><path d="M23.7,6.63H19.84a1.76,1.76,0,0,0-1.76,1.76H11.92a1.76,1.76,0,0,0-1.76-1.76H6.3A1.76,1.76,0,0,0,4.53,8.39v3.87A1.76,1.76,0,0,0,6.3,14H9.92l2.43,3.38a2,2,0,0,0,0,.34v3.87a1.76,1.76,0,0,0,1.77,1.76h3.86a1.76,1.76,0,0,0,1.76-1.76V17.74A1.76,1.76,0,0,0,17.94,16H14.66l-2.78-3.34a2.33,2.33,0,0,0,0-.38v-.7h6.16v.7A1.76,1.76,0,0,0,19.84,14H23.7a1.76,1.76,0,0,0,1.77-1.76V8.39A1.76,1.76,0,0,0,23.7,6.63Z" transform="translate(-4.53 -6.63)"/></svg>