<svg id="b-settings" xmlns="http://www.w3.org/2000/svg" viewBox="0 0 16.97 16.91"><path d="M22.85,14.1a8.09,8.09,0,0,1-1.92-.29c-.24-.13-.44-.4,0-.89A9.06,9.06,0,0,1,22.28,12a.75.75,0,0,0,.19-.87S21.32,9.63,21,9s-.83-.35-.83-.35-1.1.81-1.37,1-.63.37-.88.06,0-1.13.1-2S17.69,7,17.69,7L14.8,6.57c-.34-.05-.65-.08-.69.47A14.55,14.55,0,0,1,13.81,9c-.09.29-.2.36-.54.22s-.84-.85-.84-.85l-.52-.73a.52.52,0,0,0-.7-.19s-1,.74-1.8,1.27-1,.86-.64,1.28a10.93,10.93,0,0,1,1.15,1.63c.12.27-.09.6-.59.57S8,11.93,7.46,11.93a.5.5,0,0,0-.56.45s-.31,2.25-.38,2.86.45.59.45.59L8.13,16c.4,0,1,0,1.11.42A.54.54,0,0,1,9,17l-1.45,1c-.43.31-.22.65-.22.65s1.37,2,1.81,2.49a.58.58,0,0,0,.87,0l1.21-1c.28-.23.5-.29.75-.13s.19.66.19.66S12,21.94,12,22.45a.46.46,0,0,0,.4.57s2.46.4,2.93.43A.47.47,0,0,0,15.8,23s.21-1.42.26-1.83a.45.45,0,0,1,.71-.39,10.43,10.43,0,0,1,1.33,1.65.54.54,0,0,0,.62.15s2-1.45,2.43-1.81a.51.51,0,0,0,.11-.7l-.6-.8c-.36-.47-1-1.25-.44-1.44a7.44,7.44,0,0,1,2.21.19c.57,0,.59-.37.59-.37s.35-2.3.39-2.58S23.74,14.19,22.85,14.1ZM17.92,15a3,3,0,1,1-3-3A2.95,2.95,0,0,1,17.92,15Z" transform="translate(-6.51 -6.55)"/></svg>