<svg id="bionluk" xmlns="http://www.w3.org/2000/svg" viewBox="0 0 17.75 16.99"><path d="M13.27,12.39a6.49,6.49,0,0,0-2.52.75L12.1,6.51H8.26l-2,11.42a11.69,11.69,0,0,0-.16,2v1.24a2,2,0,0,0,1,1.74,6.8,6.8,0,0,0,3.23.62c3.87,0,6.24-1.56,6.3-5.79S16.3,12.33,13.27,12.39Zm-.44,6.49a2.14,2.14,0,0,1-2.38,1.74c-.8,0-.67-.39-.61-2.05a5.73,5.73,0,0,1,.34-2.29,1.29,1.29,0,0,1,.72-.68C12.91,15.13,13.61,16.11,12.83,18.88Z" transform="translate(-6.13 -6.51)"/><path d="M18.11,23.49h3.81l1.29-6.9a5,5,0,0,0,.09-.95V14.2s0-1.65-2.6-1.65-2.86,1.28-2.86,1.28v2.28a.87.87,0,0,1,1.08-.4C19.65,16,18.11,23.49,18.11,23.49Z" transform="translate(-6.13 -6.51)"/><path d="M22.15,6.51a2.44,2.44,0,0,0-2.69,2.55c-.14,3.24,4.41,2,4.41-.46A1.9,1.9,0,0,0,22.15,6.51Z" transform="translate(-6.13 -6.51)"/></svg>