<svg id="certificates" xmlns="http://www.w3.org/2000/svg" viewBox="0 0 12.57 17.32"><path d="M16.46,21.76H9.1v-15H20.29v9.92s.24-.07.39.38V6.34h-12V22.16H16.3A.48.48,0,0,1,16.46,21.76Z" transform="translate(-8.71 -6.34)"/><path d="M11,20.74s0,0,0-.06a.9.9,0,0,0-.9-.9v-11a.89.89,0,0,0,.9-.89.43.43,0,0,0,0-.11h7.47s0,.07,0,.11a.9.9,0,0,0,.81.88v7.47s0,.24.39.2v-8a.86.86,0,0,1-.23,0,.68.68,0,0,1-.72-.73.59.59,0,0,1,.05-.23h-8a.74.74,0,0,1-.74,1,.64.64,0,0,1-.24-.05V20A.64.64,0,0,1,10,20a.79.79,0,0,1,.79.79.76.76,0,0,1-.06.26h6l-.44-.26Z" transform="translate(-8.71 -6.34)"/><rect x="3.47" y="2.56" width="5.01" height="0.53"/><rect x="2.33" y="4.11" width="7.31" height="0.5"/><rect x="2.33" y="5.66" width="7.31" height="0.36"/><rect x="2.33" y="7.19" width="7.31" height="0.4"/><rect x="2.33" y="8.63" width="7.31" height="0.5"/><path d="M17.08,16.63V16.5H11v.38h5.78A.62.62,0,0,1,17.08,16.63Z" transform="translate(-8.71 -6.34)"/><path d="M15.91,18.05H11v.38h5v-.24S15.92,18.16,15.91,18.05Z" transform="translate(-8.71 -6.34)"/><path d="M15.8,19.45H12.7v.39h3.35v-.11S15.82,19.63,15.8,19.45Z" transform="translate(-8.71 -6.34)"/><path d="M18.75,17.28a1.79,1.79,0,1,0,1.79,1.79A1.79,1.79,0,0,0,18.75,17.28Zm0,3.33a1.54,1.54,0,1,1,1.54-1.54A1.54,1.54,0,0,1,18.75,20.61Z" transform="translate(-8.71 -6.34)"/><path d="M21.07,18.74a.88.88,0,0,1-.1-.69.34.34,0,0,0-.29-.4c-.09,0-.45-.07-.45-.43s-.38-.31-.67-.31-.24,0-.5-.26a.45.45,0,0,0-.64.08c-.1.12-.13.11-.56.09s-.51.12-.51.3-.15.4-.52.51-.29.48-.27.68a.42.42,0,0,1-.21.44.45.45,0,0,0,.08.66c.23.17.08.51.06.82s.28.21.51.31.27.33.3.55.76.18.76.18c.38-.12.46.28.7.33s.37-.28.66-.33.62.06.74-.19.14-.49.43-.49.38-.22.34-.65.06-.35.26-.61S21.22,18.89,21.07,18.74Zm-2.31,2.38a2.05,2.05,0,1,1,2-2.05A2.05,2.05,0,0,1,18.76,21.12Z" transform="translate(-8.71 -6.34)"/><path d="M18.61,21.79s-.2-.07-.24-.19-.25-.13-.46-.1-.51,0-.57-.14-.25-.08-.29.11S16.47,23,16.47,23s-.1.27.24.06.67-.49.85-.1.31.95.41.53S18.61,21.79,18.61,21.79Z" transform="translate(-8.71 -6.34)"/><path d="M18.9,21.85l.64,1.73s.11.22.22-.13.07-.81.53-.61.85.45.71.12-.6-1.57-.6-1.57a.24.24,0,0,0-.3,0,.51.51,0,0,1-.52.07C19.39,21.39,18.9,21.85,18.9,21.85Z" transform="translate(-8.71 -6.34)"/><polygon points="10.04 11.81 10.34 12.41 11.01 12.51 10.52 12.99 10.64 13.66 10.04 13.34 9.44 13.66 9.55 12.99 9.06 12.51 9.73 12.41 10.04 11.81"/></svg>