<svg id="Layer_4" data-name="Layer 4" xmlns="http://www.w3.org/2000/svg" viewBox="0 0 17.53 17.21"><path d="M15,6.39a8.76,8.76,0,0,0-2.29,17.22c.38-.54.29-1.86-.72-1.79-1.17.08-1.71-.93-2.39-1.84s-1.66-.85-.86-1.3,1.59.89,2.31,1.55A1.28,1.28,0,0,0,13,19.92c.39-.5.44-.77-.4-.84a3.61,3.61,0,0,1-2.78-2.23,5.44,5.44,0,0,1,.32-3.92c.43-.57,0-1.9.25-2.62s1.67.09,2.12.47.37.15,1.33-.08a5.19,5.19,0,0,1,2.84.19c.66.3,1.48-.55,2.36-.87s.9,1.55.62,1.94.91,1.7.93,3A4.53,4.53,0,0,1,19,18.26a4.75,4.75,0,0,1-2.51.9c1,.3.59,3,.54,3.82a.6.6,0,0,0,.32.62A8.76,8.76,0,0,0,15,6.39Z" transform="translate(-6.24 -6.39)"/></svg>