<svg id="home" xmlns="http://www.w3.org/2000/svg" viewBox="0 0 16.99 16.93"><path d="M22.81,13.68c-.18-.15-7-6.95-7-6.95A1.29,1.29,0,0,0,15,6.54c-.54,0-.75.09-1,.32L7,13.91a1.62,1.62,0,0,0-.34,1.65,1.64,1.64,0,0,0,1.72,1v5.26a1.9,1.9,0,0,0,1.81,1.65h2.77s.42,0,.46-.42,0-4.16,0-4.16a.87.87,0,0,1,.86-.76H15.9s.69.18.72.74,0,4.05,0,4.05-.06.55.61.55h2.71a1.83,1.83,0,0,0,1.72-1.71V16.53h.48a1.58,1.58,0,0,0,1.31-1.22A1.46,1.46,0,0,0,22.81,13.68Zm-.32,1.46-.08.16-.11.13-.19.1-.17,0h-.79l-.21,0-.13.09-.11.14,0,.2v5.73l0,.15-.07.13-.06.11-.08.1-.11.09-.11.07-.14.06-.14,0H17.6V18.84a1.84,1.84,0,0,0-1.7-1.7H14a1.91,1.91,0,0,0-1.6,1.61v3.73H10l-.17,0-.12-.07-.1-.06-.11-.09-.07-.08L9.41,22l-.05-.1,0-.16V16c0-.42-.46-.46-.46-.46H8l-.24-.11-.14-.14-.08-.14V15l0-.25.1-.15,7-7,.09-.06.12-.06h.35l.11.06.07.06,6.75,6.74.3.32.08.17Z" transform="translate(-6.51 -6.53)"/></svg>