<svg id="instagram" xmlns="http://www.w3.org/2000/svg" viewBox="0 0 16.92 16.92"><path d="M19,6.54H11A4.49,4.49,0,0,0,6.54,11V19A4.49,4.49,0,0,0,11,23.46H19A4.49,4.49,0,0,0,23.46,19V11A4.49,4.49,0,0,0,19,6.54Zm3,12.31a3.27,3.27,0,0,1-3.27,3.26H11.29A3.27,3.27,0,0,1,8,18.85V11.42a3.27,3.27,0,0,1,3.27-3.26h7.42A3.27,3.27,0,0,1,22,11.42Z" transform="translate(-6.54 -6.54)"/><circle cx="12.96" cy="3.97" r="1.2"/><path d="M14.94,10.66A4.33,4.33,0,1,0,19.27,15,4.33,4.33,0,0,0,14.94,10.66Zm0,7a2.62,2.62,0,1,1,2.61-2.62A2.62,2.62,0,0,1,14.94,17.7Z" transform="translate(-6.54 -6.54)"/></svg>