<svg id="light" xmlns="http://www.w3.org/2000/svg" viewBox="0 0 16.8 16.8"><path d="M15,10.27a4.7,4.7,0,1,0,4.7,4.7A4.69,4.69,0,0,0,15,10.27Zm0,7.87A3.17,3.17,0,1,1,18.19,15,3.17,3.17,0,0,1,15,18.14Z" transform="translate(-6.6 -6.6)"/><rect x="7.64" width="1.53" height="2.71" rx="0.76"/><rect x="7.64" y="14.09" width="1.53" height="2.71" rx="0.76"/><rect x="7.15" y="13.65" width="1.61" height="2.71" rx="0.81" transform="translate(16.35 0.45) rotate(90)"/><rect x="21.24" y="13.65" width="1.61" height="2.71" rx="0.81" transform="translate(30.45 -13.65) rotate(90)"/><rect x="19.2" y="8.67" width="1.61" height="2.71" rx="0.81" transform="translate(6.35 -17.81) rotate(45)"/><rect x="19.2" y="18.61" width="1.61" height="2.71" rx="0.81" transform="translate(41.67 13.34) rotate(135)"/><rect x="9.24" y="8.67" width="1.61" height="2.71" rx="0.81" transform="translate(-10.75 3.44) rotate(-45)"/><rect x="9.24" y="18.61" width="1.61" height="2.71" rx="0.81" transform="translate(-3.57 34.58) rotate(-135)"/></svg>