<svg id="phone" xmlns="http://www.w3.org/2000/svg" viewBox="0 0 16.81 16.8"><path d="M23.35,18.65c-.09-1.26-2.8-1.22-4-1.5s-2.14,1.59-2.71,2.09a1.13,1.13,0,0,1-1.14.26A63,63,0,0,1,10.76,15c-.81-1.07-.31-1.38.71-2.23S12.8,11,12.73,9s-.85-2.42-.85-2.42H7.17c-.71,0-.57,1.26-.57,1.26a17.08,17.08,0,0,0,2.93,8.39A15.73,15.73,0,0,0,22.12,23.4C23.52,23.49,23.45,19.9,23.35,18.65Zm-14-6.2A12.72,12.72,0,0,1,8.21,9a.41.41,0,0,1,.35-.49,7.25,7.25,0,0,1,1.15-.09c.84,0,1.27.36,1.28,1.1a3.28,3.28,0,0,1-.8,2.41C9.51,12.62,9.34,12.45,9.34,12.45ZM20.9,21.6a22.27,22.27,0,0,1-3.33-.78c-.2-.39.5-1,1.07-1.46s.43-.38,1-.32,1.81-.09,1.78.34S21.83,21.69,20.9,21.6Z" transform="translate(-6.59 -6.6)"/><path d="M17.67,15.25h1.84s.8-2.64-1.43-3.9-3.3-.91-3.3-.91v1.91s1.45-.22,2,.47A2.75,2.75,0,0,1,17.67,15.25Z" transform="translate(-6.59 -6.6)"/><path d="M21.1,15.25h2.3A8.21,8.21,0,0,0,21,9.07,9.67,9.67,0,0,0,14.78,6.6V8.42s3.23-.07,4.77,2S21.12,12.4,21.1,15.25Z" transform="translate(-6.59 -6.6)"/></svg>