<svg id="projects" xmlns="http://www.w3.org/2000/svg" viewBox="0 0 16.96 16.97"><polygon points="4.29 2.25 3.7 0 3.13 0.15 3.71 2.42 4.29 2.25"/><polygon points="3.03 2.93 1.05 1.52 0.74 1.99 2.7 3.39 3.03 2.93"/><polygon points="2.52 4.3 2.65 4.85 0.39 5.41 0.26 4.85 2.52 4.3"/><rect x="13.84" y="10.47" width="1.98" height="0.59"/><polygon points="13.74 11.96 13.39 12.39 15.09 13.81 15.44 13.38 13.74 11.96"/><rect x="12.15" y="12.73" width="0.58" height="1.98"/><path d="M18.6,9.18a2.26,2.26,0,1,0,2.26,2.26A2.26,2.26,0,0,0,18.6,9.18Zm0,4a1.7,1.7,0,1,1,1.7-1.7A1.7,1.7,0,0,1,18.6,13.14Z" transform="translate(-6.52 -6.51)"/><rect x="8.2" y="12.46" width="0.59" height="0.86"/><path d="M15.31,18.41a2.41,2.41,0,0,0-.42-1.34,2.6,2.6,0,0,0-1.11-.86,3.41,3.41,0,0,1-1.95-4.29,3.54,3.54,0,0,1,1.39-1.71l-.31-.49a4.12,4.12,0,0,0-1.83,3,3.76,3.76,0,0,0,1.84,3.66c.74.42,1,.44,1.34.82a1.75,1.75,0,0,1,.46,1.23Z" transform="translate(-6.52 -6.51)"/><path d="M23.15,10.94c-.42,0-1.26,0-1.25-.33s0-.36.87-.87a.37.37,0,0,0,.11-.56c-.24-.36-.95-1.29-.95-1.29a.34.34,0,0,0-.47,0c-.27.19-.8.63-.8.63s-.28.11-.36,0A.53.53,0,0,1,20.22,8a7.7,7.7,0,0,0,.12-.8s.12-.32-.27-.37l-.52-.06L18.41,6.6s-.24,0-.3.28-.06,1.27-.34,1.28-.81-.78-.94-1-.36-.12-.58.05l-.65.5a6,6,0,0,0-2.67.42,5,5,0,0,0-2.34,1.92,5.24,5.24,0,0,0-.91,2.7H9.52s-.2,0-.2.24.1,1-.12,1-.7-.51-.82-.64-.29-.06-.43.09l-.83.85a.2.2,0,0,0,0,.28c.16.15.71.61.64.78s-.13.17-.53.17-.72-.07-.74.18,0,1.33,0,1.33a.22.22,0,0,0,.24.21h.82s.19,0,.21.16,0,.18-.29.46-.59.43-.32.7l.87.87s.19.14.32,0,.58-.6.58-.6.15-.1.26,0,.12.21.13.33,0,.69,0,.69,0,.23.3.23h1.21a.22.22,0,0,0,.2-.21V19a.24.24,0,0,1,.18-.19c.17,0,.78.66.78.66s.19.12.32,0l.43-.44v.71a1,1,0,0,0,.32.85,1.21,1.21,0,0,0,.26.2h0v1.7a.84.84,0,0,0,.3.63c.3.25.4.38.79.38H15.7a1.06,1.06,0,0,0,.74-.41,1.41,1.41,0,0,0,.26-.65V20.79a1,1,0,0,0,.45-.44c.22-.36.07-1.11.12-1.69a1.39,1.39,0,0,1,.65-1.12,5.63,5.63,0,0,0,.65-.49l-.35-.42a3,3,0,0,1-.52.38c-.25.13-.24.18-.69.67s-.27,1.72-.3,2.16a.69.69,0,0,1-.49.57,13.32,13.32,0,0,1-2.65-.12c-.33-.18-.19-.38-.25-1.55s-.41-1.28-1.23-1.87a4.83,4.83,0,0,1-1.7-5.19,4.94,4.94,0,0,1,1-1.81,5.53,5.53,0,0,1,1.41-1.08A5.33,5.33,0,0,1,15,8.27a.3.3,0,0,0,.06.27c.18.23.81.92.69,1.12s-.2.2-.73.13-.92-.23-1,.09-.24,1.74-.24,1.74a.27.27,0,0,0,.26.3l1.08.15s.24,0,.23.26,0,.23-.46.54-.84.44-.54.84l1,1.29s.22.21.42.06l.86-.67s.22-.11.35,0a.52.52,0,0,1,.1.46c0,.16-.14.89-.14.89s-.1.29.35.35l1.56.22a.3.3,0,0,0,.3-.25c0-.25.16-1.12.16-1.12a.32.32,0,0,1,.28-.21c.22,0,.88,1,.88,1s.23.18.41,0l1.37-1s.16-.21,0-.38l-.68-.9s-.11-.22,0-.33.33-.1.57-.07l.77.13s.3,0,.34-.22.25-1.64.25-1.64S23.57,11,23.15,10.94ZM13.88,21.15h2.26v.39H13.88Zm0,.9h2.26a1.42,1.42,0,0,1,0,.48c0,.32-.49.39-.49.39s-1,0-1.33,0-.44-.41-.44-.41ZM11.66,17.2c.15.11.33.27.52.43a1,1,0,0,0,.06.2l.54.57L12.2,19l-.52-.5a.69.69,0,0,0-.73-.07.65.65,0,0,0-.32.51v.7H9.76v-.58a.7.7,0,0,0-.34-.63.61.61,0,0,0-.68.06l-.53.5L7.6,18.4s.29-.28.46-.47a.63.63,0,0,0,.11-.72.68.68,0,0,0-.5-.35H7L7,16c.23,0,1,.12,1.2-.36a.64.64,0,0,0-.08-.7l-.49-.5.61-.61c.36.35.62.78,1.09.62a.62.62,0,0,0,.45-.51,4.31,4.31,0,0,0,.2.83,1.69,1.69,0,1,0,1.71,2.43Zm-.46-.41a1.09,1.09,0,0,1-1,.75,1.12,1.12,0,0,1,0-2.24A7.31,7.31,0,0,0,11.2,16.79Zm11.51-4.18L22,12.48a.86.86,0,0,0-.89.36,1,1,0,0,0-.07.81l.6.84-.88.69-.57-.74a.94.94,0,0,0-.93-.23.88.88,0,0,0-.52.61l-.13.91-1.12-.16.11-.75a.91.91,0,0,0-.32-.88.83.83,0,0,0-.9-.06l-.78.56-.67-.91s.43-.31.68-.52a.82.82,0,0,0,.27-.91.87.87,0,0,0-.58-.55l-.92-.14.17-1.11c.3,0,1.32.35,1.63-.23a.84.84,0,0,0,0-.93l-.54-.74.9-.68c.41.52.66,1.13,1.31,1a.83.83,0,0,0,.7-.7l.11-.85,1.12.17s-.09.59-.11.79A.79.79,0,0,0,20,9a.84.84,0,0,0,1,0l.69-.52.7.92a3.77,3.77,0,0,1-.52.38.85.85,0,0,0-.48,1,.84.84,0,0,0,.7.6l.83.11Z" transform="translate(-6.52 -6.51)"/></svg>