<svg id="settings" xmlns="http://www.w3.org/2000/svg" viewBox="0 0 16.97 16.91"><path d="M15,11A3.94,3.94,0,1,0,18.91,15,3.94,3.94,0,0,0,15,11Zm0,6.9a3,3,0,1,1,3-3A2.95,2.95,0,0,1,15,17.94Z" transform="translate(-6.51 -6.55)"/><path d="M22.85,14.1a8.09,8.09,0,0,1-1.92-.29c-.24-.13-.44-.4,0-.89A9.06,9.06,0,0,1,22.28,12a.75.75,0,0,0,.19-.87S21.32,9.63,21,9s-.83-.35-.83-.35-1.1.81-1.37,1-.63.37-.88.06,0-1.13.1-2S17.69,7,17.69,7L14.8,6.57c-.34-.05-.65-.08-.69.47A14.55,14.55,0,0,1,13.81,9c-.09.29-.2.36-.54.22s-.84-.85-.84-.85l-.52-.73a.52.52,0,0,0-.7-.19s-1,.74-1.8,1.27-1,.86-.64,1.28a10.93,10.93,0,0,1,1.15,1.63c.12.27-.09.6-.59.57S8,11.93,7.46,11.93a.5.5,0,0,0-.56.45s-.31,2.25-.38,2.86.45.59.45.59L8.13,16c.4,0,1,0,1.11.42A.54.54,0,0,1,9,17l-1.45,1c-.43.31-.22.65-.22.65s1.37,2,1.81,2.49a.58.58,0,0,0,.87,0l1.21-1c.28-.23.5-.29.75-.13s.19.66.19.66S12,21.94,12,22.45a.46.46,0,0,0,.4.57s2.46.4,2.93.43A.47.47,0,0,0,15.8,23s.21-1.42.26-1.83a.45.45,0,0,1,.71-.39,10.43,10.43,0,0,1,1.33,1.65.54.54,0,0,0,.62.15s2-1.45,2.43-1.81a.51.51,0,0,0,.11-.7l-.6-.8c-.36-.47-1-1.25-.44-1.44a7.44,7.44,0,0,1,2.21.19c.57,0,.59-.37.59-.37s.35-2.3.39-2.58S23.74,14.19,22.85,14.1ZM22.13,17l-1.32-.23a1.47,1.47,0,0,0-1.54.63,1.77,1.77,0,0,0-.13,1.41l1.05,1.46-1.52,1.2s-.72-.94-1-1.28a1.59,1.59,0,0,0-1.61-.4,1.52,1.52,0,0,0-.91,1.05l-.22,1.59-2-.28.19-1.31a1.63,1.63,0,0,0-.56-1.54A1.41,1.41,0,0,0,11,19.22l-1.36,1L8.5,18.61s.75-.54,1.18-.91a1.41,1.41,0,0,0,.47-1.58,1.53,1.53,0,0,0-1-1l-1.61-.25L7.84,13c.52.07,2.29.61,2.83-.41a1.42,1.42,0,0,0,0-1.61L9.77,9.67l1.57-1.19c.71.91,1.15,2,2.28,1.77A1.46,1.46,0,0,0,14.84,9L15,7.54l2,.29s-.14,1-.18,1.39a1.35,1.35,0,0,0,.61,1.44,1.44,1.44,0,0,0,1.66,0l1.2-.9,1.22,1.6a5.85,5.85,0,0,1-.9.66,1.47,1.47,0,0,0-.83,1.79,1.43,1.43,0,0,0,1.22,1l1.45.19Z" transform="translate(-6.51 -6.55)"/></svg>