<svg id="Logo" data-name="logo" xmlns="http://www.w3.org/2000/svg" viewBox="0 0 1495.94 429.95"><polygon class="logo-y" points="340.21 330.32 80.12 30.76 105.41 0 406.11 0 430.93 30.19 317.34 168.39 304.45 153.25 405.59 30.19 396.58 19.22 114.94 19.22 105.74 30.41 340.04 300.28 359.08 277.82 163.4 47.92 343.96 47.92 280.51 125.12 267.62 109.97 302.53 67.49 205.77 67.49 384.74 277.77 340.21 330.32"/><polygon class="logo-y" points="177.89 338.08 0 128.2 67.53 46.07 80.5 61.02 25.53 128.01 177.67 307.51 234.49 238.38 247.5 253.37 177.89 338.08"/><polygon class="logo-y" points="172.75 256.23 65.67 129.91 101.97 85.74 114.99 100.74 91.18 129.73 172.6 225.77 197.31 195.56 210.31 210.53 172.75 256.23"/><polygon class="logo-y" points="366.25 225.86 353.4 210.76 419.37 133 395.52 103.99 408.19 88.58 444.84 133.16 366.25 225.86"/><polygon class="logo-y" points="397.56 262.65 384.73 247.56 486.03 128.06 430.88 60.97 443.56 45.55 511.52 128.2 397.56 262.65"/><polygon class="logo-y" points="255.76 429.95 190.71 353.2 203.33 337.84 255.76 399.7 314.45 330.47 327.42 345.41 255.76 429.95"/><polygon class="logo-y" points="256.63 355.18 222.33 314.72 234.99 299.32 256.71 324.81 282.81 294.03 295.79 308.99 256.63 355.18"/><path class="logo-text p" d="M844.08,381.88H826.5V361.79h83.27c69.26,0,69.26,96.66,0,96.87H865.84v29.71h18v19.88H827.55V488.37h16.53Zm65.69,57.32c40,0,40-57.32,0-57.32H865.84V439.2Z" transform="translate(-212.03 -325.02)"/><path class="logo-text i" d="M1077,488v20.3h-58.38V488h18V382.08H1019V361.79h57.54v20.29h-17.79V488Z" transform="translate(-212.03 -325.02)"/><path class="logo-text n" d="M1141,508.25V488.37h16.73V382.08h-17.57V361.79h33.69l86,105.24V382.08h-17.58V361.79h56.08v20.29h-16.74V508.25h-14.86l-87-105.24v85.36h17.58v19.88Z" transform="translate(-212.03 -325.02)"/><path class="logo-text a" d="M1411.08,381.67H1395.6V361.79h49.58L1500.63,488h13.6v20.3h-54.4V488h17.57c-3.76-7.53-6.48-15.27-9.41-21.55H1395.6c-2.52,6.07-6.28,13.81-9.63,21.55h17v20.3h-54.19V488h13.6Zm48.12,65.07c-7.32-17.37-14.65-35.78-26.57-63.4-12.55,28.45-21.13,46.45-28.46,63.4Z" transform="translate(-212.03 -325.02)"/><path class="logo-text r" d="M1633.9,452.59h-25.32v35.15h18.84v20.51h-58V487.74h17.16V381.88H1569V361.79h82.23c27.62,0,50.63,12.55,50.84,44.15,0,28.87-17.57,42.47-44.15,46l32.43,35.77H1708v20.51H1665.5v-18ZM1650.64,434c20.71,0,29.08-11.71,29.29-27.2,0-17.15-12.55-24.89-28.66-24.89h-42.69V434Z" transform="translate(-212.03 -325.02)"/><path class="logo-text s" d="M903.66,620.75c0,7.67-.15,13.24-.15,20.91H891.93l-.6-15.19c-7.07-4.36-16.85-6.17-25-6.17-13.24,0-26.92,5.27-26.92,17.9,0,11.73,12.48,15,27.67,17.6,21.36,3.31,42.71,8,42.71,31-.15,24.51-23.46,31.43-43.61,31.43-15.19,0-28-3.76-39.7-14.29V683h11.88l.6,14.74c7.37,5.26,18,8.27,27.37,8.27,12.93,0,30.38-3.61,30.38-19.25.15-14.44-20.15-17.3-31.13-18.95-20.16-3.16-39.1-8.27-39.1-29.93-.31-21.81,21.35-29.18,39.55-29.18C880.05,608.72,892.38,611.43,903.66,620.75Z" transform="translate(-212.03 -325.02)"/><path class="logo-text a2" d="M1065.63,716.11h-37.3v-12h13.09c-3-6.46-5.57-12.93-8.12-18.65h-54c-2.41,5.57-5.42,12-8.28,18.65h12.79v12H946.67v-12H956.9l25.87-57.3,11.12-24.06H981.71V610.83h32.49l41.21,93.24h10.22ZM1028,673.69c-6.31-14.74-12.48-29.93-21.2-50.08-9.18,20.61-16.09,35.65-22.41,50.08Z" transform="translate(-212.03 -325.02)"/><path class="logo-text r2" d="M1131.06,703.92h14.88v12.19H1105V703.92H1118V622.86h-13.08v-12h59.25c20.46,0,35.5,10.83,35.65,31.88,0,20.15-13.24,31.74-33.09,32.79l23.16,28.42h14.29v12.19H1175V705l-23-29.18h-20.9Zm32.93-39.4c15.64,0,22.56-8.57,22.71-21.36,0-12.78-9.17-20.3-22.56-20.3h-33.08v41.66Z" transform="translate(-212.03 -325.02)"/><path class="logo-text r3" d="M1273.93,703.92h14.89v12.19h-40.91V703.92h12.94V622.86h-13.09v-12H1307c20.45,0,35.49,10.83,35.64,31.88,0,20.15-13.23,31.74-33.09,32.79l23.16,28.42H1347v12.19h-29.17V705l-23-29.18h-20.91Zm32.94-39.4c15.64,0,22.56-8.57,22.71-21.36s-9.18-20.3-22.56-20.3h-33.09v41.66Z" transform="translate(-212.03 -325.02)"/><path class="logo-text a3" d="M1503.28,716.11H1466v-12h13.08c-3-6.46-5.57-12.93-8.12-18.65h-54c-2.41,5.57-5.42,12-8.28,18.65h12.79v12h-37.15v-12h10.23l25.87-57.3,11.12-24.06h-12.18V610.83h32.49l41.21,93.24h10.22Zm-37.6-42.42c-6.31-14.74-12.48-29.93-21.2-50.08-9.18,20.61-16.09,35.65-22.41,50.08Z" transform="translate(-212.03 -325.02)"/><path class="logo-text f" d="M1542.69,622.71V610.83h82.41v28h-11.73l-.45-16.24H1568.7v34.29h45.12V669H1568.7v35H1583v12h-40.45v-12h13.08V622.71Z" transform="translate(-212.03 -325.02)"/><path class="logo-text i2" d="M1668,716.11v-12h13.39V622.86h-13.09v-12h39.41v12h-13.24v81.21H1708v12Z" transform="translate(-212.03 -325.02)"/></svg>